# xmcd
#
# Track frame offsets: 
#        150
#        16472
#        35922
#        52584
#        69387
#        95975
#        108329
#        127258
#        146677
#        168943
#        183627
#        198287
#
# Disc length: 2962 seconds
#
# Revision: 0
# Processed by: cddbd v1.5.2PL0 Copyright (c) Steve Scherf et al.
# Submitted via: ExactAudioCopy v1.0b1
#
DISCID=af0b900c
DTITLE=Patty Griffin - Children Running Through
DYEAR=2007
DGENRE=Folk/rock
TTITLE0=Long Ride Home
TTITLE1=Goodbye
TTITLE2=Love Throw A Line
TTITLE3=Making Pies
TTITLE4=Useless Desires
TTITLE5=Mad Mission
TTITLE6=Rain
TTITLE7=One Big Love
TTITLE8=Don't Come Easy
TTITLE9=Chief
TTITLE10=Let Him Fly
TTITLE11=Mary
EXTD=
EXTT0=
EXTT1=
EXTT2=
EXTT3=
EXTT4=
EXTT5=
EXTT6=
EXTT7=
EXTT8=
EXTT9=
EXTT10=
EXTT11=
PLAYORDER=
